0
SECTION
2
HEADER
9
$INSUNITS
70
4
9
$ACADVER
1
AC1014
9
$HANDSEED
5
FFFF
0
ENDSEC
0
SECTION
2
TABLES
0
TABLE
2
VPORT
5
8
100
AcDbSymbolTable
0
ENDTAB
0
TABLE
2
LTYPE
5
5
100
AcDbSymbolTable
0
LTYPE
5
14
100
AcDbSymbolTableRecord
100
AcDbLinetypeTableRecord
2
BYBLOCK
70
0
0
LTYPE
5
15
100
AcDbSymbolTableRecord
100
AcDbLinetypeTableRecord
2
BYLAYER
70
0
0
ENDTAB
0
TABLE
2
LAYER
5
2
100
AcDbSymbolTable
70
2
0
LAYER
5
50
100
AcDbSymbolTableRecord
100
AcDbLayerTableRecord
2
0
70
0
6
CONTINUOUS
0
ENDTAB
0
TABLE
2
STYLE
5
3
100
AcDbSymbolTable
70
1
0
STYLE
5
11
100
AcDbSymbolTableRecord
100
AcDbTextStyleTableRecord
2
STANDARD
70
0
0
ENDTAB
0
TABLE
2
VIEW
5
6
100
AcDbSymbolTable
70
0
0
ENDTAB
0
TABLE
2
UCS
5
7
100
AcDbSymbolTable
70
0
0
ENDTAB
0
TABLE
2
APPID
5
9
100
AcDbSymbolTable
70
2
0
APPID
5
12
100
AcDbSymbolTableRecord
100
AcDbRegAppTableRecord
2
ACAD
70
0
0
ENDTAB
0
TABLE
2
DIMSTYLE
5
A
100
AcDbSymbolTable
70
1
0
ENDTAB
0
TABLE
2
BLOCK_RECORD
5
1
100
AcDbSymbolTable
70
1
0
BLOCK_RECORD
5
1F
100
AcDbSymbolTableRecord
100
AcDbBlockTableRecord
2
*MODEL_SPACE
0
BLOCK_RECORD
5
1B
100
AcDbSymbolTableRecord
100
AcDbBlockTableRecord
2
*PAPER_SPACE
0
ENDTAB
0
ENDSEC
0
SECTION
2
BLOCKS
0
BLOCK
5
20
100
AcDbEntity
100
AcDbBlockBegin
2
*MODEL_SPACE
0
ENDBLK
5
21
100
AcDbEntity
100
AcDbBlockEnd
0
BLOCK
5
1C
100
AcDbEntity
100
AcDbBlockBegin
2
*PAPER_SPACE
0
ENDBLK
5
1D
100
AcDbEntity
100
AcDbBlockEnd
0
ENDSEC
0
SECTION
2
ENTITIES
0
LWPOLYLINE
5
100
100
AcDbEntity
8
0
100
AcDbPolyline
90
4
70
1
43
0.0
10
85
20
78
10
85
20
117.00000000000001
10
80
20
117.00000000000001
10
80
20
78
0
LINE
5
101
100
AcDbEntity
8
0
100
AcDbLine
10
5.5511151231257827e-16
20
78
30
0
11
5
21
78
31
0
0
LINE
5
102
100
AcDbEntity
8
0
100
AcDbLine
10
5
20
78
30
0
11
5
21
39
31
0
0
LINE
5
103
100
AcDbEntity
8
0
100
AcDbLine
10
5
20
39
30
0
11
0
21
39
31
0
0
LINE
5
104
100
AcDbEntity
8
0
100
AcDbLine
10
0
20
39
30
0
11
0
21
5
31
0
0
LINE
5
105
100
AcDbEntity
8
0
100
AcDbLine
10
0
20
5
30
0
11
50
21
5
31
0
0
LINE
5
106
100
AcDbEntity
8
0
100
AcDbLine
10
50
20
5
30
0
11
50
21
0
31
0
0
LINE
5
107
100
AcDbEntity
8
0
100
AcDbLine
10
50
20
0
30
0
11
100
21
0
31
0
0
LINE
5
108
100
AcDbEntity
8
0
100
AcDbLine
10
100
20
0
30
0
11
100
21
5
31
0
0
LINE
5
109
100
AcDbEntity
8
0
100
AcDbLine
10
100
20
5
30
0
11
150
21
5
31
0
0
LINE
5
110
100
AcDbEntity
8
0
100
AcDbLine
10
150
20
5
30
0
11
150
21
39
31
0
0
LINE
5
111
100
AcDbEntity
8
0
100
AcDbLine
10
150
20
39
30
0
11
145
21
39
31
0
0
LINE
5
112
100
AcDbEntity
8
0
100
AcDbLine
10
145
20
39
30
0
11
145
21
78
31
0
0
LINE
5
113
100
AcDbEntity
8
0
100
AcDbLine
10
145
20
78
30
0
11
150
21
78
31
0
0
LINE
5
114
100
AcDbEntity
8
0
100
AcDbLine
10
150
20
78
30
0
11
150
21
117.00000000000001
31
0
0
LINE
5
115
100
AcDbEntity
8
0
100
AcDbLine
10
150
20
117.00000000000001
30
0
11
145
21
117.00000000000001
31
0
0
LINE
5
116
100
AcDbEntity
8
0
100
AcDbLine
10
145
20
117.00000000000001
30
0
11
145
21
156
31
0
0
LINE
5
117
100
AcDbEntity
8
0
100
AcDbLine
10
145
20
156
30
0
11
150.00000223517418
21
156.00000232458115
31
0
0
LINE
5
118
100
AcDbEntity
8
0
100
AcDbLine
10
150.00000223517418
20
156.00000232458115
30
0
11
150
21
195
31
0
0
LINE
5
119
100
AcDbEntity
8
0
100
AcDbLine
10
150
20
195
30
0
11
145.00000216066837
21
195
31
0
0
LINE
5
120
100
AcDbEntity
8
0
100
AcDbLine
10
145.00000216066837
20
195.00000290572643
30
0
11
145
21
190
31
0
0
LINE
5
121
100
AcDbEntity
8
0
100
AcDbLine
10
145
20
190
30
0
11
100
21
190
31
0
0
LINE
5
122
100
AcDbEntity
8
0
100
AcDbLine
10
100
20
190
30
0
11
100
21
195
31
0
0
LINE
5
123
100
AcDbEntity
8
0
100
AcDbLine
10
100
20
195
30
0
11
50
21
195
31
0
0
LINE
5
124
100
AcDbEntity
8
0
100
AcDbLine
10
50
20
195
30
0
11
50
21
190
31
0
0
LINE
5
125
100
AcDbEntity
8
0
100
AcDbLine
10
50
20
190
30
0
11
5
21
190
31
0
0
LINE
5
126
100
AcDbEntity
8
0
100
AcDbLine
10
5
20
190
30
0
11
5
21
195
31
0
0
LINE
5
127
100
AcDbEntity
8
0
100
AcDbLine
10
5
20
195
30
0
11
0
21
195
31
0
0
LINE
5
128
100
AcDbEntity
8
0
100
AcDbLine
10
0
20
195
30
0
11
1.1102230246251565e-15
21
156
31
0
0
LINE
5
129
100
AcDbEntity
8
0
100
AcDbLine
10
1.1102230246251565e-15
20
156
30
0
11
5.0000000000000009
21
156
31
0
0
LINE
5
130
100
AcDbEntity
8
0
100
AcDbLine
10
5.0000000000000009
20
156
30
0
11
5.0000000000000036
21
117.00000000000001
31
0
0
LINE
5
131
100
AcDbEntity
8
0
100
AcDbLine
10
5.0000000000000036
20
117.00000000000001
30
0
11
3.3306690738754696e-15
21
117.00000000000001
31
0
0
LINE
5
132
100
AcDbEntity
8
0
100
AcDbLine
10
3.3306690738754696e-15
20
117.00000000000001
30
0
11
5.5511151231257827e-16
21
78
31
0
0
ENDSEC
0
SECTION
2
OBJECTS
0
DICTIONARY
5
C
100
AcDbDictionary
3
ACAD_GROUP
350
D
3
ACAD_MLINESTYLE
350
17
0
DICTIONARY
5
D
100
AcDbDictionary
0
DICTIONARY
5
1A
330
C
100
AcDbDictionary
0
DICTIONARY
5
17
100
AcDbDictionary
0
ENDSEC
0
EOF
